<svg xmlns="http://www.w3.org/2000/svg" width="1200" height="860" viewBox="0 0 1200 860"><defs><clipPath id="window"><rect width="1200" height="820" rx="24"/></clipPath><clipPath id="results"><rect x="244" y="400" width="644" height="298" rx="20"/></clipPath></defs><rect x="0" y="0" width="1200" height="860" rx="0" fill="#F5F4EC"/><g clip-path="url(#window)"><rect x="0" y="0" width="1200" height="820" rx="24" fill="#F5F4EC"/><rect x="0" y="0" width="220" height="820" rx="0" fill="#EAF0E7"/><rect x="20" y="18" width="12" height="12" rx="6" fill="#D97864"/><rect x="41" y="18" width="12" height="12" rx="6" fill="#DBAD60"/><rect x="62" y="18" width="12" height="12" rx="6" fill="#5EBEA5"/><text x="710" y="27" fill="#65756D" font-family="SF Pro, SF Pro Display, Helvetica Neue, Arial, sans-serif" font-size="11" font-weight="500" text-anchor="middle">CleanYourMac</text><g transform="translate(20 56) scale(0.044921875)"><rect width="1024" height="1024" rx="224" fill="#137969"/><path d="M265 740C202 642 209 491 307 382C405 272 589 226 776 246C784 422 741 603 632 713C526 819 371 830 265 740Z" fill="#5EBEA5"/><path d="M520 370L544 444L618 470L544 495L520 570L495 495L420 470L495 445Z" fill="#FFFDF5" stroke="#FFFDF5" stroke-width="14" stroke-linejoin="round"/></g><text x="78" y="76" fill="#213C35" font-family="SF Pro Rounded, SF Pro Display, Helvetica Neue, Arial, sans-serif" font-size="16" font-weight="650" text-anchor="start">CleanYourMac</text><text x="78" y="95" fill="#65756D" font-family="SF Pro, SF Pro Display, Helvetica Neue, Arial, sans-serif" font-size="10.5" font-weight="400" text-anchor="start">Room to breathe.</text><text x="24" y="133" fill="#65756D" font-family="SF Pro, SF Pro Display, Helvetica Neue, Arial, sans-serif" font-size="9" font-weight="650" text-anchor="start">YOUR MAC</text><g transform="translate(24 156)" fill="none" stroke="#65756D" stroke-width="1.5" stroke-linecap="round" stroke-linejoin="round"><rect x="1" y="1" width="6" height="6" rx="2"/><rect x="11" y="1" width="6" height="6" rx="2"/><rect x="1" y="11" width="6" height="6" rx="2"/><rect x="11" y="11" width="6" height="6" rx="2"/></g><text x="54" y="170" fill="#65756D" font-family="SF Pro, SF Pro Display, Helvetica Neue, Arial, sans-serif" font-size="12" font-weight="400" text-anchor="start">Overview</text><g transform="translate(24 192)" fill="none" stroke="#65756D" stroke-width="1.5" stroke-linecap="round" stroke-linejoin="round"><rect x="1" y="2" width="16" height="14" rx="3"/><path d="M1 11h16M13 13h1"/></g><text x="54" y="206" fill="#65756D" font-family="SF Pro, SF Pro Display, Helvetica Neue, Arial, sans-serif" font-size="12" font-weight="400" text-anchor="start">Storage explorer</text><g transform="translate(24 228)" fill="none" stroke="#65756D" stroke-width="1.5" stroke-linecap="round" stroke-linejoin="round"><path d="M3 1h8l4 4v12H3V1Zm8 0v5h4"/></g><text x="54" y="242" fill="#65756D" font-family="SF Pro, SF Pro Display, Helvetica Neue, Arial, sans-serif" font-size="12" font-weight="400" text-anchor="start">Large files</text><g transform="translate(24 264)" fill="none" stroke="#65756D" stroke-width="1.5" stroke-linecap="round" stroke-linejoin="round"><rect x="1" y="5" width="12" height="12" rx="2"/><path d="M5 3V1h12v12h-2"/></g><text x="54" y="278" fill="#65756D" font-family="SF Pro, SF Pro Display, Helvetica Neue, Arial, sans-serif" font-size="12" font-weight="400" text-anchor="start">Exact duplicates</text><g transform="translate(24 300)" fill="none" stroke="#65756D" stroke-width="1.5" stroke-linecap="round" stroke-linejoin="round"><path d="m1 5 8-4 8 4v9l-8 4-8-4V5Zm0 0 8 4 8-4M9 9v9"/></g><text x="54" y="314" fill="#65756D" font-family="SF Pro, SF Pro Display, Helvetica Neue, Arial, sans-serif" font-size="12" font-weight="400" text-anchor="start">Node dependencies</text><g transform="translate(24 336)" fill="none" stroke="#65756D" stroke-width="1.5" stroke-linecap="round" stroke-linejoin="round"><rect x="1" y="3" width="16" height="13" rx="3"/><path d="M1 6h16M5 3V1h5l2 2"/></g><text x="54" y="350" fill="#65756D" font-family="SF Pro, SF Pro Display, Helvetica Neue, Arial, sans-serif" font-size="12" font-weight="400" text-anchor="start">Build artifacts</text><g transform="translate(24 372)" fill="none" stroke="#65756D" stroke-width="1.5" stroke-linecap="round" stroke-linejoin="round"><path d="M4 3v11c0 3 9 3 9 0V7"/><circle cx="4" cy="3" r="2"/><circle cx="13" cy="5" r="2"/><circle cx="4" cy="15" r="2"/></g><text x="54" y="386" fill="#65756D" font-family="SF Pro, SF Pro Display, Helvetica Neue, Arial, sans-serif" font-size="12" font-weight="400" text-anchor="start">Git worktrees</text><g transform="translate(24 408)" fill="none" stroke="#65756D" stroke-width="1.5" stroke-linecap="round" stroke-linejoin="round"><rect x="4" y="0" width="10" height="18" rx="3"/><path d="M8 14h2"/></g><text x="54" y="422" fill="#65756D" font-family="SF Pro, SF Pro Display, Helvetica Neue, Arial, sans-serif" font-size="12" font-weight="400" text-anchor="start">iOS simulators</text><g transform="translate(24 444)" fill="none" stroke="#65756D" stroke-width="1.5" stroke-linecap="round" stroke-linejoin="round"><rect x="1" y="3" width="16" height="13" rx="3"/><path d="M1 6h16M5 3V1h5l2 2"/></g><text x="54" y="458" fill="#65756D" font-family="SF Pro, SF Pro Display, Helvetica Neue, Arial, sans-serif" font-size="12" font-weight="400" text-anchor="start">Xcode data</text><g transform="translate(24 480)" fill="none" stroke="#65756D" stroke-width="1.5" stroke-linecap="round" stroke-linejoin="round"><rect x="1" y="3" width="16" height="13" rx="3"/><path d="M1 6h16M5 3V1h5l2 2"/></g><text x="54" y="494" fill="#65756D" font-family="SF Pro, SF Pro Display, Helvetica Neue, Arial, sans-serif" font-size="12" font-weight="400" text-anchor="start">Package caches</text><g transform="translate(24 516)" fill="none" stroke="#65756D" stroke-width="1.5" stroke-linecap="round" stroke-linejoin="round"><rect x="1" y="3" width="16" height="13" rx="3"/><path d="M1 6h16M5 3V1h5l2 2"/></g><text x="54" y="530" fill="#65756D" font-family="SF Pro, SF Pro Display, Helvetica Neue, Arial, sans-serif" font-size="12" font-weight="400" text-anchor="start">Applications</text><g transform="translate(24 552)" fill="none" stroke="#65756D" stroke-width="1.5" stroke-linecap="round" stroke-linejoin="round"><circle cx="9" cy="9" r="8"/><path d="M9 4v9m-4-4 4 4 4-4"/></g><text x="54" y="566" fill="#65756D" font-family="SF Pro, SF Pro Display, Helvetica Neue, Arial, sans-serif" font-size="12" font-weight="400" text-anchor="start">Downloads</text><g transform="translate(24 588)" fill="none" stroke="#65756D" stroke-width="1.5" stroke-linecap="round" stroke-linejoin="round"><path d="M2 4h14M6 4V1h6v3M4 4l1 13h8l1-13M7 7v7m4-7v7"/></g><text x="54" y="602" fill="#65756D" font-family="SF Pro, SF Pro Display, Helvetica Neue, Arial, sans-serif" font-size="12" font-weight="400" text-anchor="start">Trash</text><g transform="translate(24 624)" fill="none" stroke="#65756D" stroke-width="1.5" stroke-linecap="round" stroke-linejoin="round"><path d="M0 9h3l2-7 4 15 3-11 2 3h4"/></g><text x="54" y="638" fill="#65756D" font-family="SF Pro, SF Pro Display, Helvetica Neue, Arial, sans-serif" font-size="12" font-weight="400" text-anchor="start">Orphan processes</text><g transform="translate(24 660)" fill="none" stroke="#65756D" stroke-width="1.5" stroke-linecap="round" stroke-linejoin="round"><circle cx="9" cy="9" r="8"/><path d="M9 4v5l4 2"/></g><text x="54" y="674" fill="#65756D" font-family="SF Pro, SF Pro Display, Helvetica Neue, Arial, sans-serif" font-size="12" font-weight="400" text-anchor="start">Activity</text><rect x="20" y="735" width="180" height="1" rx="0" fill="#DCE4DA"/><g transform="translate(24 759)" fill="none" stroke="#65756D" stroke-width="1.5" stroke-linecap="round" stroke-linejoin="round"><circle cx="9" cy="9" r="3"/><path d="m9 0 1 3 3 1 3-1 2 3-2 2v3l2 2-2 3-3-1-3 1-1 3-3-1-1-3-3-1-2-2 2-3V6L2 4l3-2 2 1 2-3Z"/></g><text x="54" y="773" fill="#213C35" font-family="SF Pro, SF Pro Display, Helvetica Neue, Arial, sans-serif" font-size="12" font-weight="500" text-anchor="start">Settings</text><rect x="245" y="75" width="690" height="685" rx="24" fill="#FFFFFF"/><text x="273" y="125" fill="#213C35" font-family="SF Pro Rounded, SF Pro Display, Helvetica Neue, Arial, sans-serif" font-size="26" font-weight="600" text-anchor="start">Move 2 folders to Trash?</text><text x="273" y="155" fill="#65756D" font-family="SF Pro, SF Pro Display, Helvetica Neue, Arial, sans-serif" font-size="13" font-weight="400" text-anchor="start">Review the exact paths and what happens next.</text><rect x="273" y="180" width="634" height="98" rx="20" fill="#D6EFE3"/><text x="293" y="210" fill="#65756D" font-family="SF Pro, SF Pro Display, Helvetica Neue, Arial, sans-serif" font-size="10" font-weight="600" text-anchor="start">YOUR SELECTION</text><text x="293" y="253" fill="#213C35" font-family="SF Pro Rounded, SF Pro Display, Helvetica Neue, Arial, sans-serif" font-size="32" font-weight="600" text-anchor="start">2 folders · 20.2 GB</text><text x="293" y="312" fill="#213C35" font-family="SF Pro, SF Pro Display, Helvetica Neue, Arial, sans-serif" font-size="14" font-weight="550" text-anchor="start">atlas-web · node_modules</text><text x="293" y="339" fill="#65756D" font-family="SF Mono, Menlo, monospace" font-size="11" font-weight="400" text-anchor="start">~/projects/atlas-web/node_modules</text><text x="883" y="312" fill="#213C35" font-family="SF Pro, SF Pro Display, Helvetica Neue, Arial, sans-serif" font-size="14" font-weight="550" text-anchor="end">12.8 GB</text><rect x="293" y="355" width="81.6" height="25" rx="12.5" fill="#D6EFE3"/><text x="303" y="372" fill="#213C35" font-family="SF Pro, SF Pro Display, Helvetica Neue, Arial, sans-serif" font-size="11" font-weight="550" text-anchor="start">Rebuildable</text><text x="293" y="412" fill="#213C35" font-family="SF Pro, SF Pro Display, Helvetica Neue, Arial, sans-serif" font-size="14" font-weight="550" text-anchor="start">atlas-api · node_modules</text><text x="293" y="439" fill="#65756D" font-family="SF Mono, Menlo, monospace" font-size="11" font-weight="400" text-anchor="start">~/projects/atlas-api/node_modules</text><text x="883" y="412" fill="#213C35" font-family="SF Pro, SF Pro Display, Helvetica Neue, Arial, sans-serif" font-size="14" font-weight="550" text-anchor="end">7.4 GB</text><rect x="293" y="455" width="81.6" height="25" rx="12.5" fill="#D6EFE3"/><text x="303" y="472" fill="#213C35" font-family="SF Pro, SF Pro Display, Helvetica Neue, Arial, sans-serif" font-size="11" font-weight="550" text-anchor="start">Rebuildable</text><rect x="273" y="505" width="634" height="128" rx="16" fill="#F5F4EC"/><text x="293" y="532" fill="#213C35" font-family="SF Pro Rounded, SF Pro Display, Helvetica Neue, Arial, sans-serif" font-size="14" font-weight="600" text-anchor="start">What happens next</text><text x="293" y="560" fill="#65756D" font-family="SF Pro, SF Pro Display, Helvetica Neue, Arial, sans-serif" font-size="12" font-weight="400" text-anchor="start">Your source files and lockfiles stay in place. Dependencies can be installed again.</text><text x="293" y="579" fill="#65756D" font-family="SF Pro, SF Pro Display, Helvetica Neue, Arial, sans-serif" font-size="12" font-weight="400" text-anchor="start">Restore is available while these items remain unchanged in Trash.</text><text x="273" y="660" fill="#65756D" font-family="SF Pro, SF Pro Display, Helvetica Neue, Arial, sans-serif" font-size="11" font-weight="400" text-anchor="start">Paths and folder contents are verified again before the move.</text><rect x="514" y="690" width="150" height="40" rx="12" fill="#FFFFFF" stroke="#DCE4DA"/><text x="589.0" y="715" fill="#213C35" font-family="SF Pro, SF Pro Display, Helvetica Neue, Arial, sans-serif" font-size="13" font-weight="550" text-anchor="middle">Cancel</text><rect x="680" y="690" width="227" height="40" rx="12" fill="#137969"/><text x="793.5" y="715" fill="#FFFDF5" font-family="SF Pro, SF Pro Display, Helvetica Neue, Arial, sans-serif" font-size="13" font-weight="550" text-anchor="middle">Move to Trash</text><text x="976" y="127" fill="#65756D" font-family="SF Pro, SF Pro Display, Helvetica Neue, Arial, sans-serif" font-size="10" font-weight="600" text-anchor="start">REVIEW FIRST</text><text x="976" y="161" fill="#65756D" font-family="SF Pro, SF Pro Display, Helvetica Neue, Arial, sans-serif" font-size="13" font-weight="400" text-anchor="start">A clear pause before</text><text x="976" y="182" fill="#65756D" font-family="SF Pro, SF Pro Display, Helvetica Neue, Arial, sans-serif" font-size="13" font-weight="400" text-anchor="start">anything changes. Exact</text><text x="976" y="203" fill="#65756D" font-family="SF Pro, SF Pro Display, Helvetica Neue, Arial, sans-serif" font-size="13" font-weight="400" text-anchor="start">paths stay visible, and</text><text x="976" y="224" fill="#65756D" font-family="SF Pro, SF Pro Display, Helvetica Neue, Arial, sans-serif" font-size="13" font-weight="400" text-anchor="start">actions describe their</text><text x="976" y="245" fill="#65756D" font-family="SF Pro, SF Pro Display, Helvetica Neue, Arial, sans-serif" font-size="13" font-weight="400" text-anchor="start">recovery limits.</text><g transform="translate(982 340) scale(0.115234375)"><rect width="1024" height="1024" rx="224" fill="#137969"/><path d="M265 740C202 642 209 491 307 382C405 272 589 226 776 246C784 422 741 603 632 713C526 819 371 830 265 740Z" fill="#5EBEA5"/><path d="M520 370L544 444L618 470L544 495L520 570L495 495L420 470L495 445Z" fill="#FFFDF5" stroke="#FFFDF5" stroke-width="14" stroke-linejoin="round"/></g></g><text x="1172" y="845" fill="#65756D" font-family="SF Pro, SF Pro Display, Helvetica Neue, Arial, sans-serif" font-size="10" font-weight="600" text-anchor="end">DESIGN CONCEPT · FIXTURE DATA</text><text x="20" y="845" fill="#65756D" font-family="SF Pro, SF Pro Display, Helvetica Neue, Arial, sans-serif" font-size="10" font-weight="600" text-anchor="start">COMFY 1.0  /  REVIEW SELECTION</text></svg>